<mxfile host="app.diagrams.net" agent="Mozilla/5.0 (Windows NT 10.0; Win64; x64) AppleWebKit/537.36 (KHTML, like Gecko) Chrome/128.0.0.0 Safari/537.36" version="24.7.13">
  <diagram name="Page-1" id="tP4vnJcVXE5fiG8qdEAz">
    <mxGraphModel dx="1114" dy="566" grid="1" gridSize="10" guides="1" tooltips="1" connect="1" arrows="1" fold="1" page="1" pageScale="1" pageWidth="827" pageHeight="1169" math="0" shadow="0">
      <root>
        <mxCell id="0" />
        <mxCell id="1" parent="0" />
        <mxCell id="XBQE4VxwSsuXmWGA1bgI-7" style="edgeStyle=orthogonalEdgeStyle;rounded=0;orthogonalLoop=1;jettySize=auto;html=1;" edge="1" parent="1" source="XBQE4VxwSsuXmWGA1bgI-1" target="XBQE4VxwSsuXmWGA1bgI-2">
          <mxGeometry relative="1" as="geometry" />
        </mxCell>
        <mxCell id="XBQE4VxwSsuXmWGA1bgI-1" value="Action_Performed" style="whiteSpace=wrap;html=1;aspect=fixed;fillColor=#dae8fc;strokeColor=#6c8ebf;" vertex="1" parent="1">
          <mxGeometry x="110" y="90" width="100" height="100" as="geometry" />
        </mxCell>
        <mxCell id="XBQE4VxwSsuXmWGA1bgI-8" style="edgeStyle=orthogonalEdgeStyle;rounded=0;orthogonalLoop=1;jettySize=auto;html=1;" edge="1" parent="1" source="XBQE4VxwSsuXmWGA1bgI-2" target="XBQE4VxwSsuXmWGA1bgI-3">
          <mxGeometry relative="1" as="geometry" />
        </mxCell>
        <mxCell id="XBQE4VxwSsuXmWGA1bgI-2" value="API_Call" style="whiteSpace=wrap;html=1;aspect=fixed;fillColor=#dae8fc;strokeColor=#6c8ebf;" vertex="1" parent="1">
          <mxGeometry x="310" y="90" width="100" height="100" as="geometry" />
        </mxCell>
        <mxCell id="XBQE4VxwSsuXmWGA1bgI-9" style="edgeStyle=orthogonalEdgeStyle;rounded=0;orthogonalLoop=1;jettySize=auto;html=1;entryX=0.5;entryY=0;entryDx=0;entryDy=0;" edge="1" parent="1" source="XBQE4VxwSsuXmWGA1bgI-3" target="XBQE4VxwSsuXmWGA1bgI-4">
          <mxGeometry relative="1" as="geometry" />
        </mxCell>
        <mxCell id="XBQE4VxwSsuXmWGA1bgI-3" value="&amp;nbsp;Backend_Validation" style="ellipse;whiteSpace=wrap;html=1;fillColor=#f8cecc;strokeColor=#b85450;" vertex="1" parent="1">
          <mxGeometry x="300" y="240" width="120" height="80" as="geometry" />
        </mxCell>
        <mxCell id="XBQE4VxwSsuXmWGA1bgI-12" style="edgeStyle=orthogonalEdgeStyle;rounded=0;orthogonalLoop=1;jettySize=auto;html=1;entryX=0.5;entryY=1;entryDx=0;entryDy=0;" edge="1" parent="1" source="XBQE4VxwSsuXmWGA1bgI-4" target="XBQE4VxwSsuXmWGA1bgI-5">
          <mxGeometry relative="1" as="geometry" />
        </mxCell>
        <mxCell id="XBQE4VxwSsuXmWGA1bgI-4" value="Database_Update" style="ellipse;whiteSpace=wrap;html=1;fillColor=#f8cecc;strokeColor=#b85450;" vertex="1" parent="1">
          <mxGeometry x="300" y="360" width="120" height="80" as="geometry" />
        </mxCell>
        <mxCell id="XBQE4VxwSsuXmWGA1bgI-11" style="edgeStyle=orthogonalEdgeStyle;rounded=0;orthogonalLoop=1;jettySize=auto;html=1;" edge="1" parent="1" source="XBQE4VxwSsuXmWGA1bgI-5" target="XBQE4VxwSsuXmWGA1bgI-6">
          <mxGeometry relative="1" as="geometry" />
        </mxCell>
        <mxCell id="XBQE4VxwSsuXmWGA1bgI-5" value="Broadcast_WebSocket" style="ellipse;whiteSpace=wrap;html=1;fillColor=#f8cecc;strokeColor=#b85450;direction=west;" vertex="1" parent="1">
          <mxGeometry x="300" y="480" width="120" height="80" as="geometry" />
        </mxCell>
        <mxCell id="XBQE4VxwSsuXmWGA1bgI-6" value="Scoreboard_Updated" style="ellipse;whiteSpace=wrap;html=1;fillColor=#d5e8d4;strokeColor=#82b366;" vertex="1" parent="1">
          <mxGeometry x="300" y="600" width="120" height="80" as="geometry" />
        </mxCell>
      </root>
    </mxGraphModel>
  </diagram>
</mxfile>
